{"title":"Marilyn Monroe : Monkey Business (1952)(Multi) 2Lions-Team","uid":5661674,"size":4807609198,"categoryP":"video","categoryS":"movies_dvdr","magnet":"?xt=urn:btih:339f400230c951beb41dee0bdbac6edd399cb461&amp;dn=Marilyn+Monroe+%3A+Monkey+Business+%281952%29%28Multi%29+2Lions-Team&amp;tr=udp%3A%2F%2Ftracker.openbittorrent.com%3A80&amp;tr=udp%3A%2F%2Fopen.demonii.com%3A1337&amp;tr=udp%3A%2F%2Ftracker.coppersurfer.tk%3A6969&amp;tr=udp%3A%2F%2Fexodus.desync.com%3A6969","seeders":1,"leechers":0,"uploader":"Pioen","files":-1,"time":1277996306,"description":"Marilyn Monroe : Monkey Business (1952)       \n  \n \nVerenigde Staten\nFantasy / Komedie\n97 minuten\n\ngeregisseerd door Howard Hawks\nmet Cary Grant, Ginger Rogers en Charles Coburn\n\nDr. Barnaby Fultan (Cary Grant) is de saaie wetenschapper die aan een verjongingsmiddel werkt, zonder succes. Tot het moment dat de chimpansee waar hij mee werkt, uitbreekt en het laboratorium overhoop gooit en per ongeluk de formule bereidt waar Fultan al jaren naar op zoek is. Fultan en zijn vrouw (Ginger Rogers) proberen het goedje uit met werkelijk de meest vreemde resultaten: zoals het steeds jonger worden met elke nieuwe dosis. Ook anderen wagen zich aan dit elixer, waaronder zijn norse baas en zijn secretaresse (Marilyn Monroe). Het resultaat is complete chaos.\n\n\nEnglish\n\nBarnaby Fulton is a research chemist working on a fountain of youth pill for a chemical company. While trying a sample dose on himself, he accidentally gets a dose of a mixture added to the water cooler and believes his potion is what is working. The mixture temporarily causes him to feel and act like a teenager, including correcting his vision. When his wife gets a dose that is even larger, she regresses even further into her childhood. When an old boyfriend meets her in this state, he believes that her never wanting to see him again means a divorce and a chance for him. \n\n\nSpotinformatie \nCategorie : Beeld \nFormaat : DVD5 \nBron    : Retail\nCover   : Yes\nAudio   : English, French, German, Italian, Spanish,\nSubs    : Danish, Dutch, English, Finnish, French, German, Italian, Norwegian, Spanish, Swedish, \nMenu    : Yes\nBeeld   : 4.3\n\nVideo\nID                               : 224 (0xE0)\nFormat                           : MPEG Video\nFormat version                   : Version 2\nFormat profile                   : Main@Main\nFormat settings, Matrix          : Default\nDuration                         : 20mn 14s\nBit rate mode                    : Variable\nBit rate                         : 5 832 Kbps\nNominal bit rate                 : 7 500 Kbps\nWidth                            : 720 pixels\nHeight                           : 576 pixels\nDisplay aspect ratio             : 4/3\nFrame rate                       : 25.000 fps\nStandard                         : PAL\nColorimetry                      : 4:2:0\nScan type                        : Progressive\nScan order                       : Top Field First\nBits/(Pixel*Frame)               : 0.563\nStream size                      : 844 MiB (82%)\n\nAudio #1\nID                               : 128 (0x80)\nFormat                           : AC-3\nFormat/Info                      : Audio Coding 3\nDuration                         : 20mn 14s\nBit rate mode                    : Constant\nBit rate                         : 192 Kbps\nChannel(s)                       : 2 channels\nChannel positions                : L R\nSampling rate                    : 48.0 KHz\nVideo delay                      : -496ms\nStream size                      : 27.8 MiB (3%) \n\n \nGenre : Komedie\nFantasiefilm\n\n\n\nWeblink : &lt;a href=&quot; http://www.moviemeter.nl/film/4936&quot; rel=&quot;nofollow&quot; target=&quot;_NEW&quot;&gt; http://www.moviemeter.nl/film/4936&lt;/a&gt; \nWeblink : &lt;a href=&quot; http://www.imdb.com/title/tt0044916&quot; rel=&quot;nofollow&quot; target=&quot;_NEW&quot;&gt; http://www.imdb.com/title/tt0044916&lt;/a&gt; \n\n*****************************************\n\nBrought to you by \nPioen\n\n2Lions Team\n\nmeer zien??\nKom dan eens kijken op ons forum \n\n\n\n\n2Lions the site to be for all your Dutch MOVIES and more\n\n******************************************\n\n\nDON T HIT AND RUN Niet gelijk afhaken als de FILM binnen is blijf seeden. \n\nDon`t quit after you finished the download, but keep seeding\n\n\nThere are fake torrents from uploaders who use our team name.\nThose are not ours, or members from our team.\nWe 2Lions-Team are not responsible for the fake posts on our name\n\nWij 2Lions-Team zijn niet verantwoordelijk voor die zieke FAKE posten die op onze naam worden gedaan\n \n\n\n \n \n \n","torrent":{"xt":"urn:btih:339f400230c951beb41dee0bdbac6edd399cb461","amp;dn":"Marilyn+Monroe+%3A+Monkey+Business+%281952%29%28Multi%29+2Lions-Team","amp;tr":["udp%3A%2F%2Ftracker.openbittorrent.com%3A80","udp%3A%2F%2Fopen.demonii.com%3A1337","udp%3A%2F%2Ftracker.coppersurfer.tk%3A6969","udp%3A%2F%2Fexodus.desync.com%3A6969"],"infoHash":"339f400230c951beb41dee0bdbac6edd399cb461","infoHashBuffer":{"type":"Buffer","data":[51,159,64,2,48,201,81,190,180,29,238,11,219,172,110,221,57,156,180,97]},"announce":[],"urlList":[]}}